#!OML:ASF F:\VICON\USERDATA\INSTALL\rory3\rory3.ASF
:FULLY-SPECIFIED
:DEGREES
803
root 2.07027 16.6084 22.1533 397.698 23.9343 -359.312
lowerback -15.5432 -6.27592 9.80158
upperback -14.2846 -9.09974 3.87823
thorax -7.85544 -5.23616 -1.87403
lowerneck 4.39344 -18.9706 -17.9169
upperneck 2.97438 -27.1295 18.3879
head 5.14969 -13.5937 6.34153
rclavicle 4.91992e-015 1.09332e-014
rhumerus -37.0002 -381.758 -424.534
rradius 25.1894
rwrist -5.30759
rhand 8.25082 11.0519
rfingers 7.12502
rthumb 33.4655 -15.8489
lclavicle 4.91992e-015 1.09332e-014
lhumerus -35.5615 5.33269 86.4651
lradius 21.8821
lwrist -20.3653
lhand 1.82231 10.9831
lfingers 7.12502
lthumb 27.3346 39.0212
rfemur -63.972 6.248 381.274
rtibia 42.6875
rfoot 139.491 142.062
rtoes 34.9083
lfemur -22.79 -1.00551 -20.177
ltibia 38.3776
lfoot -210.735 -148.516
ltoes 40.3976
804
root 2.0763 16.606 22.15 397.695 23.9832 -359.347
lowerback -15.378 -6.27747 9.84203
upperback -14.5223 -9.07012 3.84064
thorax -8.23653 -5.24344 -1.8793
lowerneck 5.05422 -18.8002 -18.1483
upperneck 3.11593 -27.0285 18.4412
head 5.10954 -13.582 6.46519
rclavicle -4.34531e-014 -5.76476e-015
rhumerus -37.5958 -381.759 -423.974
rradius 25.1872
rwrist -5.52745
rhand 8.0998 11.3539
rfingers 7.12502
rthumb 33.3219 -15.5778
lclavicle -4.34531e-014 -5.76476e-015
lhumerus -36.1113 4.4547 87.1982
lradius 21.7695
lwrist -18.2344
lhand -0.135503 9.7533
lfingers 7.12502
lthumb 25.4606 38.0726
rfemur -63.959 5.84666 381.652
rtibia 42.67
rfoot 140.018 142.205
rtoes 34.6346
lfemur -22.7683 -1.18998 -20.1217
ltibia 38.4638
lfoot -212.472 -150.423
ltoes 42.1618
805
root 2.0861 16.609 22.1458 397.467 24.3981 -359.779
lowerback -15.4163 -6.2247 10.4033
upperback -14.5818 -9.04737 3.87239
thorax -8.39609 -5.28454 -2.12565
lowerneck 5.89544 -18.6289 -18.4133
upperneck 2.9979 -26.9387 18.6801
head 4.99618 -13.5897 6.6714
rclavicle 4.65902e-016 -3.3197e-014
rhumerus -38.0107 -381.527 -423.671
rradius 25.2989
rwrist -6.14387
rhand 7.83044 11.5792
rfingers 7.12502
rthumb 33.0658 -15.4072
lclavicle 4.65902e-016 -3.3197e-014
lhumerus -36.3707 3.69533 87.8312
lradius 22.3263
lwrist -18.1095
lhand 0.319096 10.8528
lfingers 7.12502
lthumb 25.896 39.1093
rfemur -63.8071 5.47991 382.471
rtibia 42.6188
rfoot 140.338 142.361
rtoes 34.4767
lfemur -22.8029 -1.34892 -19.5387
ltibia 38.5909
lfoot -212.103 -150.018
ltoes 41.814
806
root 2.09315 16.6085 22.1423 397.378 24.4407 -359.937
lowerback -15.6523 -6.19379 10.4689
upperback -14.3959 -9.05281 3.90872
thorax -8.05659 -5.27528 -2.1777
lowerneck 5.9697 -18.565 -18.5727
upperneck 2.97062 -26.888 18.8972
head 5.02162 -13.5703 6.76616
rclavicle 5.09386e-016 1.92821e-014
rhumerus -37.9193 -381.293 -423.632
rradius 25.6003
rwrist -6.81405
rhand 7.52985 11.5149
rfingers 7.12502
rthumb 32.7799 -15.5315
lclavicle 5.09386e-016 1.92821e-014
lhumerus -36.1061 3.34803 88.3174
lradius 23.3988
lwrist -19.1977
lhand 2.43641 13.1807
lfingers 7.12502
lthumb 27.9219 41.1248
rfemur -63.7506 5.16427 382.891
rtibia 42.5876
rfoot 140.96 142.549
rtoes 33.9946
lfemur -22.891 -1.3295 -19.4451
ltibia 38.7127
lfoot -210.586 -148.433
ltoes 39.7482
807
root 2.09698 16.604 22.1366 397.441 24.2925 -359.863
lowerback -15.9881 -6.19921 10.2158
upperback -13.967 -9.11014 3.91754
thorax -7.32567 -5.24854 -2.14438
lowerneck 4.92044 -18.6987 -18.3149
upperneck 3.17535 -26.9357 18.9347
head 5.23146 -13.5267 6.61916
rclavicle -7.62712e-014 2.16675e-014
rhumerus -37.1388 -381.484 -423.838
rradius 25.8769
rwrist -7.29142
rhand 7.33552 11.1992
rfingers 7.12502
rthumb 32.595 -15.8856
lclavicle -7.62712e-014 2.16675e-014
lhumerus -35.1984 3.24498 88.6049
lradius 24.3472
lwrist -20.7954
lhand 4.85642 14.7239
lfingers 7.12502
lthumb 30.233 42.2687
rfemur -63.8122 4.98995 382.899
rtibia 42.5924
rfoot 141.246 142.79
rtoes 34.2664
lfemur -22.9863 -1.19395 -19.6598
ltibia 38.7979
lfoot -210.34 -148.18
ltoes 39.1011
808
root 2.09855 16.6011 22.1303 397.446 24.3581 -359.982
lowerback -16.442 -6.29253 10.2115
upperback -13.2204 -9.34922 4.01151
thorax -6.23005 -5.30819 -2.21254
lowerneck 3.00659 -19.007 -17.5045
upperneck 3.19836 -27.0634 18.9472
head 5.46113 -13.4684 6.30778
rclavicle 3.475e-014 3.77691e-015
rhumerus -35.4499 -382.366 -424.287
rradius 25.5626
rwrist -7.02759
rhand 7.17234 11.425
rfingers 7.12502
rthumb 32.4397 -15.6917
lclavicle 3.475e-014 3.77691e-015
lhumerus -33.584 3.42739 88.5813
lradius 24.8779
lwrist -21.7891
lhand 6.29322 15.1463
lfingers 7.12502
lthumb 31.6027 42.4311
rfemur -63.8822 4.96269 383.042
rtibia 42.627
rfoot 141.044 143.086
rtoes 35.1557
lfemur -23.062 -1.22445 -19.5387
ltibia 38.8293
lfoot -210.95 -148.712
ltoes 39.7802
809
root 2.09859 16.5991 22.119 397.576 24.0715 -359.752
lowerback -16.4927 -6.25479 9.87301
upperback -13.234 -9.27196 3.81097
thorax -6.17821 -5.25433 -2.2507
lowerneck 3.65511 -18.977 -17.7086
upperneck 2.85413 -27.1252 19.4444
head 5.36852 -13.541 6.5374
rclavicle 7.51406e-014 -6.95746e-015
rhumerus -35.5002 -382.743 -423.928
rradius 25.3143
rwrist -6.85482
rhand 6.96481 11.7216
rfingers 7.12502
rthumb 32.2422 -15.4354
lclavicle 7.51406e-014 -6.95746e-015
lhumerus -33.6078 3.44614 88.5748
lradius 25.3437
lwrist -22.103
lhand 6.48629 14.8417
lfingers 7.12502
lthumb 31.7866 42.0902
rfemur -64.0357 5.05524 382.639
rtibia 42.6596
rfoot 141.139 143.013
rtoes 35.3494
lfemur -23.1087 -1.36328 -19.9391
ltibia 38.8437
lfoot -211.499 -149.085
ltoes 40.1958
810
root 2.09636 16.5972 22.1113 397.679 23.6478 -359.504
lowerback -15.768 -6.2317 9.51411
upperback -13.7562 -9.09105 3.63441
thorax -7.10299 -5.18822 -2.08008
lowerneck 4.18983 -18.8823 -18.0004
upperneck 3.30494 -27.1423 19.3396
head 5.44686 -13.575 6.57817
rclavicle -8.76268e-014 -3.43897e-014
rhumerus -36.3074 -382.394 -423.311
rradius 25.2805
rwrist -7.02088
rhand 6.71429 11.5823
rfingers 7.12502
rthumb 32.0037 -15.6229
lclavicle -8.76268e-014 -3.43897e-014
lhumerus -34.3989 3.4793 88.6353
lradius 25.7954
lwrist -22.0102
lhand 6.61562 14.7374
lfingers 7.12502
lthumb 31.9097 41.9614
rfemur -64.1088 5.3276 382.083
rtibia 42.5836
rfoot 141.099 142.937
rtoes 35.6649
lfemur -23.1736 -1.12261 -20.4341
ltibia 38.9433
lfoot -210.013 -147.721
ltoes 38.5382
811
root 2.09335 16.5948 22.1109 397.549 23.5296 -359.833
lowerback -16.2233 -6.1241 9.55958
upperback -13.3014 -9.0362 3.64009
thorax -6.33753 -5.12849 -2.21108
lowerneck 3.60655 -18.9662 -17.7745
upperneck 3.23541 -27.177 19.5141
head 5.52266 -13.5545 6.53589
rclavicle 3.00165e-014 -1.93815e-014
rhumerus -35.5882 -383.184 -423.154
rradius 25.0891
rwrist -6.65552
rhand 6.63455 11.353
rfingers 7.12502
rthumb 31.9278 -15.8674
lclavicle 3.00165e-014 -1.93815e-014
lhumerus -33.4824 3.63142 88.6281
lradius 25.8583
lwrist -21.6566
lhand 6.38892 14.4353
lfingers 7.12502
lthumb 31.6938 41.7022
rfemur -64.0754 5.86563 382.087
rtibia 42.4585
rfoot 141.003 142.747
rtoes 36.1313
lfemur -23.2335 -0.683758 -20.2299
ltibia 39.0461
lfoot -209.376 -147.235
ltoes 38.2474
